# xmcd
# 
# Track frame offsets:
#     150
#     10360
#     31242
#     47072
#     77865
#     88915
#     115235
#     129777
#     147722
#     163677
# 
# Disc length: 2330
# 
# Revision: 7
# Processed by: cddbd v1.5.2PL0 Copyright (c) Steve Scherf et al.
# Submitted via: fre:ac v1.0.27
# 
DISCID=8309180a
DTITLE=Various Artist - The Gentle Side Of John Coltrane
DYEAR=1974
DGENRE=Jazz
TTITLE0=John Coltrane - Boot Hill
TTITLE1=Stevie Ray Vaughn - The Sky is Crying
TTITLE2=John Coltrane - Empty Arms
TTITLE3=John Coltrane - Little Wing
TTITLE4=John Coltrane - Wham
TTITLE5=John Coltrane - May I Have A Talk With You
TTITLE6=John Coltrane - Close To You
TTITLE7=John Coltrane - Chitlins Con Carne
TTITLE8=John Coltrane - So Excited
TTITLE9=John Coltrane - Life By The Drop
EXTD=
EXTT0=
EXTT1=
EXTT2=
EXTT3=
EXTT4=
EXTT5=
EXTT6=
EXTT7=
EXTT8=
EXTT9=
PLAYORDER=
